<svg width="34" height="16" viewBox="0 0 34 16" fill="none" xmlns="http://www.w3.org/2000/svg">
<path d="M33.6104 7.08663C33.61 7.08624 33.6097 7.08579 33.6092 7.0854L26.6695 0.375723C26.1496 -0.126923 25.3087 -0.125052 24.7912 0.380109C24.2738 0.885206 24.2758 1.70217 24.7957 2.20488L29.455 6.70966H1.32812C0.594601 6.70966 0 7.28734 0 7.99998C0 8.71263 0.594601 9.29031 1.32812 9.29031H29.4549L24.7957 13.7951C24.2759 14.2978 24.2739 15.1148 24.7913 15.6199C25.3088 16.1251 26.1498 16.1268 26.6696 15.6242L33.6093 8.91457C33.6097 8.91418 33.61 8.91373 33.6105 8.91334C34.1307 8.40895 34.129 7.58934 33.6104 7.08663Z" fill="white"/>
</svg>
