<svg width="34" height="17" viewBox="0 0 34 17" fill="none" xmlns="http://www.w3.org/2000/svg">
<path d="M0.389553 7.723C0.389954 7.72261 0.390285 7.72216 0.390751 7.72177L7.33047 1.01209C7.85036 0.509445 8.69126 0.511316 9.20877 1.01648C9.7262 1.52157 9.72421 2.33854 9.20432 2.84125L4.54499 7.34603H32.6719C33.4054 7.34603 34 7.92371 34 8.63635C34 9.349 33.4054 9.92667 32.6719 9.92667H4.54506L9.20425 14.4315C9.72414 14.9342 9.72614 15.7511 9.2087 16.2562C8.69119 16.7615 7.85023 16.7632 7.3304 16.2606L0.390682 9.55093C0.390285 9.55055 0.389954 9.5501 0.389488 9.54971C-0.130672 9.04532 -0.129013 8.22571 0.389553 7.723Z" fill="white"/>
</svg>
