<svg width="111" height="76" viewBox="0 0 111 76" fill="none" xmlns="http://www.w3.org/2000/svg">
<line x1="1.31134e-07" y1="21.5" x2="72" y2="21.5" stroke="#35CD8C" stroke-width="3"/>
<circle cx="72" cy="20" r="20" fill="#35CD8C"/>
<path d="M76.8004 20.4101L70.6428 26.6286C70.3726 26.9008 69.9348 26.9008 69.6639 26.6286C69.3938 26.3563 69.3938 25.9141 69.6639 25.6418L75.3331 19.9167L69.6646 14.1916C69.3944 13.9194 69.3944 13.4772 69.6646 13.2042C69.9348 12.9319 70.3733 12.9319 70.6434 13.2042L76.801 19.4226C77.0671 19.6921 77.0671 20.1413 76.8004 20.4101Z" fill="white"/>
<path d="M48.172 73.098C47.528 73.098 46.9493 72.986 46.436 72.762C45.932 72.5287 45.5353 72.2113 45.246 71.81C44.9567 71.3993 44.8073 70.928 44.798 70.396H46.156C46.2027 70.8533 46.3893 71.2407 46.716 71.558C47.052 71.866 47.5373 72.02 48.172 72.02C48.7787 72.02 49.2547 71.8707 49.6 71.572C49.9547 71.264 50.132 70.872 50.132 70.396C50.132 70.0227 50.0293 69.7193 49.824 69.486C49.6187 69.2527 49.362 69.0753 49.054 68.954C48.746 68.8327 48.3307 68.702 47.808 68.562C47.164 68.394 46.646 68.226 46.254 68.058C45.8713 67.89 45.54 67.6287 45.26 67.274C44.9893 66.91 44.854 66.4247 44.854 65.818C44.854 65.286 44.9893 64.8147 45.26 64.404C45.5307 63.9933 45.9087 63.676 46.394 63.452C46.8887 63.228 47.4533 63.116 48.088 63.116C49.0027 63.116 49.7493 63.3447 50.328 63.802C50.916 64.2593 51.2473 64.866 51.322 65.622H49.922C49.8753 65.2487 49.6793 64.922 49.334 64.642C48.9887 64.3527 48.5313 64.208 47.962 64.208C47.43 64.208 46.996 64.348 46.66 64.628C46.324 64.8987 46.156 65.2813 46.156 65.776C46.156 66.1307 46.254 66.42 46.45 66.644C46.6553 66.868 46.9027 67.0407 47.192 67.162C47.4907 67.274 47.906 67.4047 48.438 67.554C49.082 67.7313 49.6 67.9087 49.992 68.086C50.384 68.254 50.72 68.52 51 68.884C51.28 69.2387 51.42 69.724 51.42 70.34C51.42 70.816 51.294 71.264 51.042 71.684C50.79 72.104 50.4167 72.4447 49.922 72.706C49.4273 72.9673 48.844 73.098 48.172 73.098ZM60.2948 68.87C60.2948 69.1127 60.2808 69.3693 60.2528 69.64H54.1208C54.1675 70.396 54.4241 70.9887 54.8908 71.418C55.3668 71.838 55.9408 72.048 56.6128 72.048C57.1635 72.048 57.6208 71.922 57.9848 71.67C58.3581 71.4087 58.6195 71.0633 58.7688 70.634H60.1408C59.9355 71.3713 59.5248 71.9733 58.9088 72.44C58.2928 72.8973 57.5275 73.126 56.6128 73.126C55.8848 73.126 55.2315 72.9627 54.6528 72.636C54.0835 72.3093 53.6355 71.8473 53.3088 71.25C52.9821 70.6433 52.8188 69.9433 52.8188 69.15C52.8188 68.3567 52.9775 67.6613 53.2948 67.064C53.6121 66.4667 54.0555 66.0093 54.6248 65.692C55.2035 65.3653 55.8661 65.202 56.6128 65.202C57.3408 65.202 57.9848 65.3607 58.5448 65.678C59.1048 65.9953 59.5341 66.434 59.8328 66.994C60.1408 67.5447 60.2948 68.17 60.2948 68.87ZM58.9788 68.604C58.9788 68.1187 58.8715 67.7033 58.6568 67.358C58.4421 67.0033 58.1481 66.7373 57.7748 66.56C57.4108 66.3733 57.0048 66.28 56.5568 66.28C55.9128 66.28 55.3621 66.4853 54.9048 66.896C54.4568 67.3067 54.2001 67.876 54.1348 68.604H58.9788ZM68.9764 68.87C68.9764 69.1127 68.9624 69.3693 68.9344 69.64H62.8024C62.8491 70.396 63.1058 70.9887 63.5724 71.418C64.0484 71.838 64.6224 72.048 65.2944 72.048C65.8451 72.048 66.3024 71.922 66.6664 71.67C67.0398 71.4087 67.3011 71.0633 67.4504 70.634H68.8224C68.6171 71.3713 68.2064 71.9733 67.5904 72.44C66.9744 72.8973 66.2091 73.126 65.2944 73.126C64.5664 73.126 63.9131 72.9627 63.3344 72.636C62.7651 72.3093 62.3171 71.8473 61.9904 71.25C61.6638 70.6433 61.5004 69.9433 61.5004 69.15C61.5004 68.3567 61.6591 67.6613 61.9764 67.064C62.2938 66.4667 62.7371 66.0093 63.3064 65.692C63.8851 65.3653 64.5478 65.202 65.2944 65.202C66.0224 65.202 66.6664 65.3607 67.2264 65.678C67.7864 65.9953 68.2158 66.434 68.5144 66.994C68.8224 67.5447 68.9764 68.17 68.9764 68.87ZM67.6604 68.604C67.6604 68.1187 67.5531 67.7033 67.3384 67.358C67.1238 67.0033 66.8298 66.7373 66.4564 66.56C66.0924 66.3733 65.6864 66.28 65.2384 66.28C64.5944 66.28 64.0438 66.4853 63.5864 66.896C63.1384 67.3067 62.8818 67.876 62.8164 68.604H67.6604ZM84.2885 63.312V73H83.0145V65.776L79.7945 73H78.8985L75.6645 65.762V73H74.3905V63.312H75.7625L79.3465 71.32L82.9305 63.312H84.2885ZM89.7951 73.126C89.0764 73.126 88.4231 72.9627 87.8351 72.636C87.2564 72.3093 86.7991 71.8473 86.4631 71.25C86.1364 70.6433 85.9731 69.9433 85.9731 69.15C85.9731 68.366 86.1411 67.6753 86.4771 67.078C86.8224 66.4713 87.2891 66.0093 87.8771 65.692C88.4651 65.3653 89.1231 65.202 89.8511 65.202C90.5791 65.202 91.2371 65.3653 91.8251 65.692C92.4131 66.0093 92.8751 66.4667 93.2111 67.064C93.5564 67.6613 93.7291 68.3567 93.7291 69.15C93.7291 69.9433 93.5518 70.6433 93.1971 71.25C92.8518 71.8473 92.3804 72.3093 91.7831 72.636C91.1858 72.9627 90.5231 73.126 89.7951 73.126ZM89.7951 72.006C90.2524 72.006 90.6818 71.8987 91.0831 71.684C91.4844 71.4693 91.8064 71.1473 92.0491 70.718C92.3011 70.2887 92.4271 69.766 92.4271 69.15C92.4271 68.534 92.3058 68.0113 92.0631 67.582C91.8204 67.1527 91.5031 66.8353 91.1111 66.63C90.7191 66.4153 90.2944 66.308 89.8371 66.308C89.3704 66.308 88.9411 66.4153 88.5491 66.63C88.1664 66.8353 87.8584 67.1527 87.6251 67.582C87.3918 68.0113 87.2751 68.534 87.2751 69.15C87.2751 69.7753 87.3871 70.3027 87.6111 70.732C87.8444 71.1613 88.1524 71.4833 88.5351 71.698C88.9178 71.9033 89.3378 72.006 89.7951 72.006ZM96.6782 66.574C96.9022 66.1353 97.2195 65.7947 97.6302 65.552C98.0502 65.3093 98.5588 65.188 99.1562 65.188V66.504H98.8202C97.3922 66.504 96.6782 67.2787 96.6782 68.828V73H95.4042V65.328H96.6782V66.574ZM107.627 68.87C107.627 69.1127 107.613 69.3693 107.585 69.64H101.453C101.499 70.396 101.756 70.9887 102.223 71.418C102.699 71.838 103.273 72.048 103.945 72.048C104.495 72.048 104.953 71.922 105.317 71.67C105.69 71.4087 105.951 71.0633 106.101 70.634H107.473C107.267 71.3713 106.857 71.9733 106.241 72.44C105.625 72.8973 104.859 73.126 103.945 73.126C103.217 73.126 102.563 72.9627 101.985 72.636C101.415 72.3093 100.967 71.8473 100.641 71.25C100.314 70.6433 100.151 69.9433 100.151 69.15C100.151 68.3567 100.309 67.6613 100.627 67.064C100.944 66.4667 101.387 66.0093 101.957 65.692C102.535 65.3653 103.198 65.202 103.945 65.202C104.673 65.202 105.317 65.3607 105.877 65.678C106.437 65.9953 106.866 66.434 107.165 66.994C107.473 67.5447 107.627 68.17 107.627 68.87ZM106.311 68.604C106.311 68.1187 106.203 67.7033 105.989 67.358C105.774 67.0033 105.48 66.7373 105.107 66.56C104.743 66.3733 104.337 66.28 103.889 66.28C103.245 66.28 102.694 66.4853 102.237 66.896C101.789 67.3067 101.532 67.876 101.467 68.604H106.311Z" fill="#35CD8C"/>
</svg>
